<?xml version="1.0" encoding="utf-8"?>
<!-- Uploaded to: SVG Repo, www.svgrepo.com, Generator: SVG Repo Mixer Tools -->
<svg width="800px" height="800px" viewBox="0 0 1024 1024" class="icon"  version="1.1" xmlns="http://www.w3.org/2000/svg"><path d="M357.538708 730.749004h308.823267v51.470715H357.538708z" fill="#ACF0F2" /><path d="M666.361975 730.749004H357.538708c0-102.941431-102.941431-154.411122-102.941431-411.764698h514.705105c0.001024 257.353576-102.940407 308.823268-102.940407 411.764698z" fill="#FFB957" /><path d="M782.170573 859.425792H241.73011c-102.941431 0-128.676788-77.206073-128.676788-77.206073h797.793015c0.001024 0-25.734334 77.206073-128.675764 77.206073z" fill="#FFFFFF" /><path d="M820.774121 653.542931V396.190379h12.867167c21.312173 0 38.602525 17.279089 38.602525 38.602524v180.147504c0 21.32446-17.290351 38.602525-38.602525 38.602524h-12.867167z" fill="#F28C13" /><path d="M782.170573 872.292959H241.73011c-110.945142 0-139.709153-82.489321-140.878429-86.002272l-5.654919-16.939158h833.506135l-5.654918 16.939158c-1.168253 3.512951-29.93124 86.002272-140.877406 86.002272z m-648.068216-77.206073c13.420065 20.288288 44.333211 51.470715 107.627753 51.470716h540.440463c62.867583 0 93.943526-31.208025 107.50284-51.470716H134.102357zM679.230166 743.617195H344.671541V730.750028c0-36.950997-14.613915-67.360392-33.111428-105.862575-29.46742-61.328683-69.830003-145.320044-69.830003-305.902123v-12.867167h540.440463v12.867167c0 160.581055-40.362583 244.57344-69.830003 305.902123-18.497512 38.502184-33.111428 68.912602-33.111428 105.862575v12.867167z m-309.325995-25.735358h284.093365c2.902715-37.025741 17.969187-68.39042 35.146912-104.141424 29.1408-60.637561 65.192826-135.694498 67.203737-281.887916H267.553522c2.010911 146.193418 38.062937 221.250356 67.203737 281.887916 17.1767 35.74998 32.244197 67.115683 35.146912 104.141424zM833.641288 666.411122h-25.735357V383.323212h25.735357c28.386197 0 51.470715 23.089638 51.470715 51.470715v180.14648c0 28.380053-23.084519 51.470715-51.470715 51.470715z m0-257.352553v231.617195c14.186955 0 25.735358-11.542259 25.735358-25.735357V434.793927c0-14.194122-11.548403-25.735358-25.735358-25.735358z" fill="#4D5152" /><path d="M409.009423 318.98533h25.735358v77.206073h-25.735358z" fill="#4D5152" /><path d="M383.274065 396.190379h77.206073v102.94143H383.274065z" fill="#ACF0F2" /><path d="M473.347305 511.998976h-102.94143V383.323212h102.94143v128.675764z m-77.206073-25.735358h51.470715v-77.206072h-51.470715v77.206072zM769.303406 383.323212h51.470715v25.735357h-51.470715zM692.097333 640.675764h128.676788v25.735358H692.097333zM344.671541 730.749004h25.735357v51.470715h-25.735357zM653.494809 730.749004h25.735357v51.470715h-25.735357zM499.082663 666.411122h25.735357v25.735358h-25.735357zM447.611947 666.411122h25.735358v25.735358h-25.735358zM550.553378 666.411122h25.735358v25.735358h-25.735358zM589.143616 280.595773l-25.723071-0.213992c0-8.821796 5.013966-17.372262 11.346697-28.204969 6.748428-11.504376 14.387637-24.547651 14.387637-36.133937s-7.640232-24.629561-14.387637-36.133937c-6.333755-10.831683-11.346697-19.383173-11.346697-28.204969h25.735358c0.301022 2.362103 4.649463 9.7822 7.828627 15.192411 7.979138 13.627914 17.90673 30.579359 17.90673 49.145471s-9.927592 35.517558-17.90673 49.145472c-3.179164 5.412258-7.526581 12.832355-7.840914 15.40845zM511.937543 280.595773l-25.723071-0.213992c0-8.821796 5.013966-17.372262 11.346697-28.204969 6.748428-11.504376 14.387637-24.547651 14.387637-36.133937s-7.640232-24.629561-14.387637-36.133937c-6.333755-10.831683-11.346697-19.383173-11.346697-28.204969h25.735358c0.302046 2.362103 4.649463 9.7822 7.828627 15.192411 7.979138 13.627914 17.90673 30.579359 17.90673 49.145471s-9.927592 35.517558-17.90673 49.145472c-3.17814 5.412258-7.526581 12.832355-7.840914 15.40845zM434.732494 280.595773l-25.723071-0.213992c0-8.821796 5.013966-17.372262 11.346697-28.204969 6.748428-11.504376 14.387637-24.547651 14.387637-36.133937s-7.640232-24.629561-14.387637-36.133937c-6.333755-10.831683-11.346697-19.383173-11.346697-28.204969h25.735358c0.302046 2.362103 4.649463 9.7822 7.828627 15.192411 7.979138 13.627914 17.90673 30.579359 17.90673 49.145471s-9.927592 35.517558-17.90673 49.145472c-3.179164 5.412258-7.527605 12.832355-7.840914 15.40845z" fill="#4D5152" /></svg>